<?xml version="1.0" encoding="UTF-8"?> <svg xmlns="http://www.w3.org/2000/svg" width="100" height="100" viewBox="0 0 100 100" fill="none"><circle cx="50" cy="50" r="37.5" stroke="#FF5900" stroke-width="5"></circle><mask id="path-2-inside-1_92_9" fill="white"><path d="M90 50C90 44.7471 88.9654 39.5457 86.9552 34.6927C84.945 29.8396 81.9986 25.4301 78.2843 21.7157C74.5699 18.0014 70.1604 15.055 65.3073 13.0448C60.4543 11.0346 55.2529 10 50 10L50 50H90Z"></path></mask><path d="M90 50C90 44.7471 88.9654 39.5457 86.9552 34.6927C84.945 29.8396 81.9986 25.4301 78.2843 21.7157C74.5699 18.0014 70.1604 15.055 65.3073 13.0448C60.4543 11.0346 55.2529 10 50 10L50 50H90Z" fill="#FF5900" stroke="#FF5900" stroke-width="10" mask="url(#path-2-inside-1_92_9)"></path></svg> 