<?xml version="1.0" encoding="UTF-8"?> <svg xmlns="http://www.w3.org/2000/svg" width="61" height="114" viewBox="0 0 61 114" fill="none"><path d="M7.62301 112.713L7.61501 112.717L7.60726 112.721C6.86255 113.154 6.01853 113.411 5.10806 113.411C2.44079 113.411 0.290498 111.261 0.290498 108.594V30.5569V30.5568V30.5567V30.5566V30.5565V30.5564V30.5562V30.5561V30.556V30.5559V30.5558V30.5557V30.5556V30.5555V30.5554V30.5553V30.5552V30.5551V30.555V30.5549V30.5548V30.5547V30.5546V30.5545V30.5543V30.5542V30.5541V30.554V30.5539V30.5538V30.5537V30.5536V30.5535V30.5534V30.5533V30.5532V30.5531V30.553V30.5529V30.5528V30.5527V30.5525V30.5524V30.5523V30.5522V30.5521V30.552V30.5519V30.5518V30.5517V30.5516V30.5515V30.5514V30.5513V30.5512V30.5511V30.551V30.5508V30.5507V30.5506V30.5505V30.5504V30.5503V30.5502V30.5501V30.55V30.5499V30.5498V30.5497V30.5496V30.5495V30.5494V30.5493V30.5491V30.549V30.5489V30.5488V30.5487V30.5486V30.5485V30.5484V30.5483V30.5482V30.5481V30.548V30.5479V30.5478V30.5477V30.5475V30.5474V30.5473V30.5472V30.5471V30.547V30.5469V30.5468V30.5467V30.5466V30.5465V30.5464V30.5463V30.5462V30.5461V30.5459V30.5458V30.5457V30.5456V30.5455V30.5454V30.5453V30.5452V30.5451V30.545V30.5449V30.5448V30.5447V30.5446V30.5445V30.5443V30.5442V30.5441V30.544V30.5439V30.5438V30.5437V30.5436V30.5435V30.5434V30.5433V30.5432V30.5431V30.543V30.5429V30.5427V30.5426V30.5425V30.5424V30.5423V30.5422V30.5421V30.542V30.5419V30.5418V30.5417V30.5416V30.5415V30.5414V30.5413V30.5411V30.541V30.5409V30.5408V30.5407V30.5406V30.5405V30.5404V30.5403V30.5402V30.5401V30.54V30.5399V30.5398V30.5396V30.5395V30.5394V30.5393V30.5392V30.5391V30.539V30.5389V30.5388V30.5387V30.5386V30.5385V30.5384V30.5383V30.5381V30.538V30.5379V30.5378V30.5377V30.5376V30.5375V30.5374V30.5373V30.5372V30.5371V30.537V30.5369V30.5368V30.5366V30.5365V30.5364V30.5363V30.5362V30.5361V30.536V30.5359V30.5358V30.5357V30.5356V30.5355V30.5354V30.5353V30.5351V30.535V30.5349V30.5348V30.5347V30.5346V30.5345V30.5344V30.5343V30.5342V30.5341V30.534V30.5339V30.5338V30.5336V30.5335V30.5334V30.5333V30.5332V30.5331V30.533V30.5329V30.5328V30.5327V30.5326V30.5325V30.5324V30.5323V30.5321V30.532V30.5319V30.5318V30.5317V30.5316V30.5315V30.5314V30.5313V30.5312V30.5311V30.531V30.5309V30.5308V30.5306V30.5305V30.5304V30.5303V30.5302V30.5301V30.53V30.5299V30.5298V30.5297V30.5296V30.5295V30.5294V30.5293V30.5291V30.529V30.5289V30.5288V30.5287V30.5286V30.5285V30.5284V30.5283V30.5282V30.5281V30.528V30.5279V30.5278V30.5276V30.5275V30.5274V30.5273V30.5272V30.5271V30.527V30.5269V30.5268V30.5267V30.5266V30.5265V30.5264V30.5262V30.5261V30.526V30.5259V30.5258V30.5257V30.5256V30.5255V30.5254V30.5253V30.5252V30.5251V30.525V30.5249V30.5247V30.5246V30.5245V30.5244V30.5243V30.5242V30.5241V30.524V30.5239V30.5238V30.5237V30.5236V30.5235V30.5234V30.5232V30.5231V30.523V30.5229V30.5228V30.5227V30.5226V30.5225V30.5224V30.5223V30.5222V30.5221V30.522V30.5219V30.5217V30.5216V30.5215V30.5214V30.5213V30.5212V30.5211V30.521V30.5209V30.5208V30.5207V30.5206V30.5205V30.5204V30.5203V30.5201V30.52V30.5199V30.5198V30.5197V30.5196V30.5195V30.5194V30.5193V30.5192V30.5191V30.519V30.5189V30.5188V30.5186V30.5185V30.5184V30.5183V30.5182V30.5181V30.518V30.5179V30.5178V30.5177V30.5176V30.5175V30.5174V30.5173V30.5171V30.517V30.5169V30.5168V30.5167V30.5166V30.5165V30.5164V30.5163V30.5162V30.5161V30.516V30.5159V30.5158V30.5157V30.5155V30.5154V30.5153V30.5152V30.5151V30.515V30.5149V30.5148V30.5147V30.5146V30.5145V30.5144V30.5143V30.5142V30.514V30.5139V30.5138V30.5137V30.5136V30.5135V30.5134V30.5133V30.5132V30.5131V30.513V30.5129V30.5128V30.5127V30.5126V30.5125V30.5123V30.5122V30.5121V30.512V30.5119V30.5118V30.5117V30.5116V30.5115V30.5114V30.5113V30.5112V30.5111V30.511V30.5109V30.5107V30.5106V30.5105V30.5104V30.5103V30.5102V30.5101V30.51V30.5099V30.5098V30.5097V30.5096V30.5095V30.5094V30.5093V30.5092V30.509V30.5089V30.5088V30.5087V30.5086V30.5085V30.5084V30.5083V30.5082V30.5081V30.508V30.5079V30.5078V30.5077V30.5076V30.5075V30.5073V30.5072V30.5071V30.507V30.5069V30.5068V30.5067V30.5066V30.5065V30.5064V30.5063V30.5062V30.5061V30.506V30.5059V30.5058V30.5056V30.5055V30.5054V30.5053V30.5052V30.5051V30.505V30.5049V30.5048V30.5047V30.5046V30.5045V30.5044V30.5043V30.5042V30.5041V30.504V30.5039V30.5037V30.5036V30.5035V30.5034V30.5033V30.5032V30.5031V30.503V30.5029V30.5028V30.5027V30.5026V30.5025V30.5024V30.5023C0.290498 13.8244 13.8244 0.290498 30.5023 0.290498C47.1804 0.290498 60.714 13.8063 60.714 30.5023V30.5024V30.5025V30.5026V30.5027V30.5028V30.5029V30.503V30.5031V30.5032V30.5033V30.5034V30.5035V30.5036V30.5037V30.5038V30.504V30.5041V30.5042V30.5043V30.5044V30.5045V30.5046V30.5047V30.5048V30.5049V30.505V30.5051V30.5052V30.5053V30.5054V30.5055V30.5056V30.5058V30.5059V30.506V30.5061V30.5062V30.5063V30.5064V30.5065V30.5066V30.5067V30.5068V30.5069V30.507V30.5071V30.5072V30.5073V30.5074V30.5075V30.5076V30.5078V30.5079V30.508V30.5081V30.5082V30.5083V30.5084V30.5085V30.5086V30.5087V30.5088V30.5089V30.509V30.5091V30.5092V30.5093V30.5094V30.5095V30.5096V30.5097V30.5098V30.51V30.5101V30.5102V30.5103V30.5104V30.5105V30.5106V30.5107V30.5108V30.5109V30.511V30.5111V30.5112V30.5113V30.5114V30.5115V30.5116V30.5117V30.5118V30.5119V30.512V30.5121V30.5122V30.5123V30.5124V30.5125V30.5126V30.5127V30.5128V30.5129V30.5131V30.5132V30.5133V30.5134V30.5135V30.5136V30.5137V30.5138V30.5139V30.514V30.5141V30.5142V30.5143V30.5144V30.5145V30.5146V30.5147V30.5148V30.5149V30.515V30.5151V30.5152V30.5153V30.5154V30.5155V30.5156V30.5157V30.5158V30.5159V30.516V30.5161V30.5162V30.5163V30.5164V30.5165V30.5166V30.5167V30.5168V30.5169V30.517V30.5171V30.5172V30.5173V30.5174V30.5175V30.5176V30.5177V30.5178V30.5179V30.518V30.5181V30.5182V30.5183V30.5183V30.5184V30.5185V30.5186V30.5187V30.5188V30.5189V30.519V30.5191V30.5192V30.5193V30.5194V30.5195V30.5196V30.5197V30.5198V30.5199V30.52V30.5201V30.5202V30.5203V30.5204V30.5205V30.5206V30.5206V30.5207V30.5208V30.5209V30.521V30.5211V30.5212V30.5213V30.5214V30.5215V30.5216V30.5217V30.5218V30.5219V30.5219V30.522V30.5221V30.5222V30.5223V30.5224V30.5225V30.5226V30.5227V30.5228V30.5229V30.5229V30.523V30.5231V30.5232V30.5233V30.5234V30.5235V30.5236V30.5237V30.5238V30.5238V30.5239V30.524V30.5241V30.5242V30.5243V30.5244V30.5245V30.5245V30.5246V30.5247V30.5248V30.5249V30.525V30.5251V30.5252V30.5252V30.5253V30.5254V30.5255V30.5256V30.5257V30.5258V30.5258V30.5259V30.526V30.5261V30.5262V30.5263V30.5263V30.5264V30.5265V30.5266V30.5267V30.5268V30.5268V30.5269V30.527V30.5271V30.5272V30.5272V30.5273V30.5274V30.5275V30.5276V30.5276V30.5277V30.5278V30.5279V30.528V30.528V30.5281V30.5282V30.5283V30.5284V30.5284V30.5285V30.5286V30.5287V30.5287V30.5288V30.5289V30.529V30.5291V30.5291V30.5292V30.5293V30.5294V30.5294V30.5295V30.5296V30.5297V30.5297V30.5298V30.5299V30.5299V30.53V30.5301V30.5302V30.5302V30.5303V30.5304V30.5305V30.5305V30.5306V30.5307V30.5307V30.5308V30.5309V30.531V30.531V30.5311V30.5312V30.5312V30.5313V30.5314V30.5314V30.5315V30.5316V30.5316V30.5317V30.5318V30.5318V30.5319V30.532V30.532V30.5321V30.5322V30.5322V30.5323V30.5324V30.5324V30.5325V30.5326V30.5326V30.5327V30.5327V30.5328V30.5329V30.5329V30.533V30.5331V30.5331V30.5332V30.5332V30.5333V30.5334V30.5334V30.5335V30.5335V30.5336V30.5337V30.5337V30.5338V30.5338V30.5339V30.534V30.534V30.5341V30.5341V30.5342V30.5342V30.5343V30.5343V30.5344V30.5345V30.5345V30.5346V30.5346V30.5347V30.5347V30.5348V30.5348V30.5349V30.5349V30.535V30.535V30.5351V30.5351V30.5352V30.5352V30.5353V30.5353V30.5354V30.5354V30.5355V30.5355V30.5356V30.5356V30.5357V30.5357V30.5358V30.5358V30.5359V30.5359V30.536V30.536V30.5361V30.5361V30.5361V30.5362V30.5362V30.5363V30.5363V30.5364V30.5364V30.5364V30.5365V30.5365V30.5366V30.5366V30.5367V30.5367V30.5367V30.5368V30.5368V30.5368V30.5369V30.5369V30.537V30.537V30.537V30.5371V30.5371V30.5371V30.5372V30.5372V30.5373V30.5373V30.5373V30.5374V30.5374V30.5374V30.5375V30.5375V30.5375V30.5376V30.5376V30.5376V30.5376V30.5377V30.5377V30.5377V30.5378V30.5378V30.5378V30.5379V30.5379V30.538V30.538V30.5381V30.5381V30.5382V30.5382V30.5383V30.5383V30.5384V30.5384V30.5384V30.5385V30.5385V30.5385V30.5386V30.5386V30.5386V30.5387V30.5387V30.5387V30.5388V30.5388V30.5388V30.5389V108.576C60.714 111.243 58.5637 113.393 55.8964 113.393C54.9809 113.393 54.1221 113.151 53.404 112.707L53.3932 112.701L53.3819 112.695C53.3367 112.672 53.2843 112.634 53.207 112.576L53.1978 112.569L53.1881 112.563L33.3036 99.9023L33.3036 99.9022L33.2961 99.8977C32.4871 99.4163 31.5239 99.1271 30.5023 99.1271C29.3843 99.1271 28.3447 99.4737 27.4797 100.05C27.4788 100.05 27.4779 100.051 27.477 100.051L7.81606 112.581L7.80686 112.587L7.79813 112.594C7.71993 112.652 7.66843 112.69 7.62301 112.713Z" fill="white" stroke="#EEEEEE" stroke-width="0.580996"></path><path d="M55.6169 30.5761C55.6169 44.3857 44.4159 55.5873 30.606 55.5873C16.7961 55.5873 5.59491 44.3857 5.59491 30.5761C5.59491 16.766 16.7961 5.56483 30.606 5.56483C44.4159 5.56483 55.6169 16.766 55.6169 30.5761Z" fill="#EB4F27"></path><path d="M30.679 5.65564C16.8754 5.65564 5.68616 16.8449 5.68616 30.6487C5.68616 37.548 8.48162 43.7949 13.0028 48.3173C17.5253 52.8421 28.1798 59.3905 28.8046 66.2631C28.8983 67.2938 29.6443 68.138 30.679 68.138C31.7137 68.138 32.4597 67.2938 32.5538 66.2631C33.1783 59.3905 43.8326 52.8421 48.3551 48.3173C52.8764 43.7949 55.6722 37.548 55.6722 30.6487C55.6722 16.8449 44.4828 5.65564 30.679 5.65564Z" fill="#EB4F27"></path><path d="M34.2915 19.5754H31.7735C27.4319 19.5754 25.261 21.7461 25.261 24.9933C25.261 28.6059 26.7022 30.4116 29.9677 32.5828L32.5032 34.3886L25.261 45.6082H19.4779L26.3556 35.4832C22.3786 32.5828 20.2076 30.0648 20.2076 25.3581C20.2076 19.5754 24.1846 15.5984 31.7735 15.5984H39.363V45.6082H34.3095V19.5754H34.2915Z" fill="white"></path><path d="M11.1982 77.6297L13.7595 81.6798H11.9206L10.0927 78.79L8.23188 81.6798H6.64478L9.26076 77.6628L6.80891 73.8428H8.66972L10.3663 76.5351L12.1067 73.8428H13.6829L11.1982 77.6297ZM16.6843 80.4208C16.8741 80.4208 17.0528 80.3883 17.2207 80.3226C17.3958 80.2494 17.5491 80.1437 17.6804 80.0048C17.8117 79.8666 17.9176 79.7021 17.9978 79.5127C18.0781 79.3158 18.1182 79.0892 18.1182 78.8341C18.1182 78.586 18.0781 78.3635 17.9978 78.166C17.9176 77.969 17.8117 77.8052 17.6804 77.6739C17.5491 77.5426 17.3958 77.4438 17.2207 77.3782C17.0528 77.3049 16.8741 77.2689 16.6843 77.2689C16.4946 77.2689 16.3122 77.3049 16.1371 77.3782C15.9692 77.4438 15.8196 77.5426 15.6883 77.6739C15.557 77.8052 15.4511 77.969 15.3709 78.166C15.2906 78.3635 15.2504 78.586 15.2504 78.8341C15.2504 79.0892 15.2906 79.3158 15.3709 79.5127C15.4511 79.7021 15.557 79.8666 15.6883 80.0048C15.8196 80.1437 15.9692 80.2494 16.1371 80.3226C16.3122 80.3883 16.4946 80.4208 16.6843 80.4208ZM16.6843 81.7891C16.2757 81.7891 15.8889 81.7234 15.5241 81.5921C15.1665 81.4538 14.8491 81.2563 14.5718 81.0012C14.3018 80.7456 14.0866 80.4353 13.926 80.0705C13.7728 79.7062 13.6961 79.2937 13.6961 78.8341C13.6961 78.3815 13.7728 77.9766 13.926 77.6187C14.0866 77.2538 14.3018 76.9441 14.5718 76.6885C14.8491 76.4329 15.1665 76.24 15.5241 76.1087C15.8889 75.9698 16.2757 75.9007 16.6843 75.9007C17.093 75.9007 17.4761 75.9698 17.8336 76.1087C18.1985 76.24 18.516 76.4329 18.786 76.6885C19.0632 76.9441 19.2821 77.2538 19.4427 77.6187C19.6032 77.9766 19.6835 78.3815 19.6835 78.8341C19.6835 79.2937 19.6032 79.7062 19.4427 80.0705C19.2894 80.4353 19.0742 80.7456 18.7969 81.0012C18.5269 81.2563 18.2094 81.4538 17.8446 81.5921C17.4798 81.7234 17.093 81.7891 16.6843 81.7891ZM21.9254 76.0099L21.9582 76.7652C22.1772 76.4881 22.4472 76.276 22.7682 76.1302C23.0966 75.9768 23.4578 75.9007 23.8519 75.9007C24.1948 75.9007 24.5232 75.9623 24.837 76.0866C25.1508 76.2034 25.4281 76.3823 25.6689 76.6229C25.9097 76.8634 26.0994 77.1626 26.238 77.5205C26.384 77.8778 26.457 78.2903 26.457 78.7574C26.457 79.2536 26.3767 79.6911 26.2162 80.0705C26.0629 80.4429 25.8586 80.7566 25.6032 81.0123C25.3478 81.2673 25.0559 81.4608 24.7275 81.5921C24.4064 81.7234 24.0817 81.7891 23.7534 81.7891C23.3885 81.7891 23.0601 81.731 22.7682 81.6142C22.4763 81.4974 22.221 81.333 22.0021 81.1215V83.6175H20.4805V76.0099H21.9254ZM24.9136 78.8446C24.9136 78.5895 24.8735 78.3595 24.7932 78.1555C24.7129 77.951 24.6071 77.7796 24.4758 77.6408C24.3445 77.5019 24.1912 77.3962 24.0161 77.3235C23.8409 77.2503 23.6549 77.2137 23.4578 77.2137C23.2681 77.2137 23.082 77.2503 22.8996 77.3235C22.7245 77.3962 22.5675 77.506 22.4289 77.6518C22.2903 77.7907 22.1808 77.962 22.1005 78.166C22.0203 78.3635 21.9802 78.593 21.9802 78.8556C21.9802 79.1182 22.0203 79.3518 22.1005 79.5563C22.1808 79.7608 22.2903 79.9322 22.4289 80.0705C22.5675 80.2024 22.7245 80.304 22.8996 80.3772C23.0747 80.4504 23.2608 80.4865 23.4578 80.4865C23.6549 80.4865 23.8409 80.4504 24.0161 80.3772C24.1912 80.304 24.3445 80.1983 24.4758 80.06C24.6071 79.9136 24.7129 79.7422 24.7932 79.5453C24.8735 79.3413 24.9136 79.1078 24.9136 78.8446ZM29.9283 80.4208C30.118 80.4208 30.2968 80.3883 30.4647 80.3226C30.6398 80.2494 30.793 80.1437 30.9244 80.0048C31.0558 79.8666 31.1616 79.7021 31.2418 79.5127C31.3221 79.3158 31.3622 79.0892 31.3622 78.8341C31.3622 78.586 31.3221 78.3635 31.2418 78.166C31.1616 77.969 31.0558 77.8052 30.9244 77.6739C30.793 77.5426 30.6398 77.4438 30.4647 77.3782C30.2968 77.3049 30.118 77.2689 29.9283 77.2689C29.7386 77.2689 29.5562 77.3049 29.381 77.3782C29.2132 77.4438 29.0636 77.5426 28.9323 77.6739C28.8009 77.8052 28.6951 77.969 28.6148 78.166C28.5345 78.3635 28.4944 78.586 28.4944 78.8341C28.4944 79.0892 28.5345 79.3158 28.6148 79.5127C28.6951 79.7021 28.8009 79.8666 28.9323 80.0048C29.0636 80.1437 29.2132 80.2494 29.381 80.3226C29.5562 80.3883 29.7386 80.4208 29.9283 80.4208ZM29.9283 81.7891C29.5197 81.7891 29.1329 81.7234 28.7681 81.5921C28.4105 81.4538 28.0931 81.2563 27.8158 81.0012C27.5458 80.7456 27.3305 80.4353 27.17 80.0705C27.0167 79.7062 26.9401 79.2937 26.9401 78.8341C26.9401 78.3815 27.0167 77.9766 27.17 77.6187C27.3305 77.2538 27.5458 76.9441 27.8158 76.6885C28.0931 76.4329 28.4105 76.24 28.7681 76.1087C29.1329 75.9698 29.5197 75.9007 29.9283 75.9007C30.337 75.9007 30.7201 75.9698 31.0776 76.1087C31.4423 76.24 31.7601 76.4329 32.0297 76.6885C32.3074 76.9441 32.5259 77.2538 32.6868 77.6187C32.8472 77.9766 32.9273 78.3815 32.9273 78.8341C32.9273 79.2937 32.8472 79.7062 32.6868 80.0705C32.5334 80.4353 32.3184 80.7456 32.0407 81.0012C31.7711 81.2563 31.4533 81.4538 31.0886 81.5921C30.7237 81.7234 30.337 81.7891 29.9283 81.7891ZM33.7245 76.0099H35.2461V80.3993H37.0849V76.0099H38.6066V80.3993H40.4344V76.0099H41.956V81.6798H33.7245V76.0099ZM45.8254 81.7891C45.3438 81.7891 44.9133 81.7199 44.5339 81.5811C44.1545 81.4352 43.8332 81.2348 43.5706 80.9792C43.308 80.7241 43.1035 80.4173 42.9576 80.06C42.8188 79.6952 42.7496 79.2972 42.7496 78.8667C42.7496 78.4071 42.8263 77.9946 42.9791 77.6297C43.1401 77.2649 43.3516 76.9546 43.6142 76.6995C43.8843 76.4439 44.1946 76.2469 44.5449 76.1087C44.9022 75.9698 45.2781 75.9007 45.672 75.9007C46.0735 75.9007 46.4419 75.9768 46.7777 76.1302C47.1205 76.276 47.4052 76.4915 47.6312 76.7762C47.8647 77.0609 48.0326 77.4148 48.1349 77.8377C48.2441 78.2537 48.2697 78.7319 48.2116 79.2716H44.3474C44.4427 79.644 44.6361 79.9502 44.9278 80.1913C45.227 80.4249 45.6389 80.5417 46.1647 80.5417C46.4854 80.5417 46.8102 80.4975 47.1391 80.4104C47.4673 80.3151 47.7445 80.1838 47.9705 80.0159V81.2203C47.7369 81.3882 47.4307 81.5265 47.0513 81.6363C46.6719 81.7379 46.2629 81.7891 45.8254 81.7891ZM45.6174 77.0714C45.2892 77.0714 45.0115 77.1777 44.7854 77.3892C44.5594 77.5931 44.4061 77.8708 44.3259 78.2212H46.7556C46.7335 77.8923 46.6243 77.6187 46.4273 77.4002C46.2304 77.1812 45.9602 77.0714 45.6174 77.0714ZM51.7899 81.7891C51.3083 81.7891 50.8778 81.7199 50.4984 81.5811C50.119 81.4352 49.7977 81.2348 49.5351 80.9792C49.2725 80.7241 49.068 80.4173 48.9221 80.06C48.7833 79.6952 48.7141 79.2972 48.7141 78.8667C48.7141 78.4071 48.7908 77.9946 48.9442 77.6297C49.1046 77.2649 49.316 76.9546 49.5787 76.6995C49.8488 76.4439 50.1591 76.2469 50.5094 76.1087C50.8667 75.9698 51.2426 75.9007 51.6366 75.9007C52.038 75.9007 52.4064 75.9768 52.7422 76.1302C53.085 76.276 53.3697 76.4915 53.5957 76.7762C53.8292 77.0609 53.9971 77.4148 54.0994 77.8377C54.2092 78.2537 54.2342 78.7319 54.1761 79.2716H50.3125C50.4072 79.644 50.6006 79.9502 50.8923 80.1913C51.1915 80.4249 51.604 80.5417 52.1292 80.5417C52.4505 80.5417 52.7753 80.4975 53.1036 80.4104C53.4318 80.3151 53.709 80.1838 53.9355 80.0159V81.2203C53.702 81.3882 53.3952 81.5265 53.0158 81.6363C52.6364 81.7379 52.228 81.7891 51.7899 81.7891ZM51.5819 77.0714C51.2537 77.0714 50.9765 77.1777 50.75 77.3892C50.5239 77.5931 50.3706 77.8708 50.2904 78.2212H52.7201C52.6986 77.8923 52.5888 77.6187 52.3918 77.4002C52.1949 77.1812 51.9247 77.0714 51.5819 77.0714ZM17.5907 85.3058L19.1232 88.546L20.7213 85.3058H22.5711L22.582 90.9758H21.0606V87.265L19.5063 90.5377H18.4773L17.0106 87.2324V90.9758H15.6972V85.3058H17.5907ZM26.4617 91.085C25.9801 91.085 25.5496 91.0159 25.1701 90.877C24.7907 90.7312 24.4696 90.5307 24.2069 90.2751C23.9442 90.02 23.7399 89.7133 23.5939 89.356C23.4552 88.9911 23.3859 88.5931 23.3859 88.1626C23.3859 87.703 23.4626 87.2905 23.6158 86.9256C23.7764 86.5608 23.988 86.2505 24.2507 85.9955C24.5207 85.7398 24.8308 85.5429 25.181 85.4046C25.5386 85.2657 25.9144 85.1966 26.3085 85.1966C26.7098 85.1966 27.0783 85.2727 27.414 85.4261C27.757 85.5719 28.0416 85.7875 28.2677 86.0722C28.5013 86.3568 28.6691 86.7107 28.7713 87.1336C28.8808 87.5496 28.9063 88.0278 28.8479 88.5675H24.984C25.0789 88.94 25.2722 89.2461 25.5641 89.4873C25.8634 89.7208 26.2756 89.8376 26.801 89.8376C27.1221 89.8376 27.4469 89.7934 27.7752 89.7063C28.1036 89.611 28.3809 89.4797 28.6071 89.3118V90.5162C28.3736 90.6841 28.0671 90.8224 27.6876 90.9322C27.3082 91.0339 26.8996 91.085 26.4617 91.085ZM26.2537 86.3673C25.9253 86.3673 25.6481 86.4736 25.4219 86.6851C25.1957 86.889 25.0424 87.1668 24.9622 87.5171H27.3921C27.3702 87.1883 27.2608 86.9146 27.0637 86.6962C26.8667 86.4771 26.5967 86.3673 26.2537 86.3673ZM32.3824 91.085C31.9303 91.085 31.5178 91.0159 31.1456 90.877C30.7735 90.7387 30.4524 90.5452 30.1824 90.2972C29.9197 90.0415 29.7154 89.7353 29.5695 89.3775C29.4235 89.0126 29.3505 88.6041 29.3505 88.1516C29.3505 87.7065 29.4235 87.3016 29.5695 86.9367C29.7227 86.5718 29.9343 86.2616 30.2043 86.0065C30.4816 85.7509 30.81 85.5539 31.1895 85.4151C31.569 85.2692 31.9919 85.1966 32.459 85.1966C32.7873 85.1966 33.083 85.2291 33.3456 85.2948C33.6158 85.3604 33.8459 85.4447 34.0353 85.5464V86.9256C33.8459 86.7798 33.6268 86.6706 33.3788 86.5974C33.1307 86.5172 32.8785 86.4771 32.6235 86.4771C32.1128 86.4771 31.6968 86.6264 31.3755 86.9256C31.0618 87.2249 30.9048 87.6188 30.9048 88.108C30.9048 88.3636 30.945 88.5966 31.0253 88.8087C31.1128 89.0126 31.2332 89.188 31.3865 89.3339C31.5399 89.4797 31.7183 89.5965 31.9228 89.6842C32.1343 89.7644 32.3643 89.8045 32.6124 89.8045C32.8605 89.8045 33.1086 89.7679 33.3567 89.6953C33.6048 89.622 33.8348 89.5088 34.0463 89.356V90.6585C33.8714 90.7898 33.6379 90.8956 33.3456 90.9758C33.054 91.049 32.7327 91.085 32.3824 91.085ZM39.5966 85.3058V86.5863H37.878V90.9758H36.3564V86.5863H34.6709V85.3058H39.5966ZM42.7717 89.7168C42.9611 89.7168 43.1401 89.6842 43.308 89.6186C43.4829 89.5454 43.6362 89.4396 43.7675 89.3008C43.8988 89.1625 44.0046 88.9981 44.0848 88.8087C44.1649 88.6117 44.2056 88.3851 44.2056 88.1301C44.2056 87.882 44.1649 87.6594 44.0848 87.4619C44.0046 87.2649 43.8988 87.1011 43.7675 86.9698C43.6362 86.8385 43.4829 86.7397 43.308 86.6741C43.1401 86.6009 42.9611 86.5648 42.7717 86.5648C42.5817 86.5648 42.3993 86.6009 42.2244 86.6741C42.0565 86.7397 41.9066 86.8385 41.7753 86.9698C41.644 87.1011 41.5383 87.2649 41.4581 87.4619C41.3779 87.6594 41.3378 87.882 41.3378 88.1301C41.3378 88.3851 41.3779 88.6117 41.4581 88.8087C41.5383 88.9981 41.644 89.1625 41.7753 89.3008C41.9066 89.4396 42.0565 89.5454 42.2244 89.6186C42.3993 89.6842 42.5817 89.7168 42.7717 89.7168ZM42.7717 91.085C42.3627 91.085 41.9763 91.0193 41.6115 90.888C41.2536 90.7498 40.9364 90.5522 40.6586 90.2972C40.3891 90.0415 40.1735 89.7313 40.0132 89.3664C39.8598 89.0021 39.7831 88.5896 39.7831 88.1301C39.7831 87.6775 39.8598 87.2725 40.0132 86.9146C40.1735 86.5497 40.3891 86.2401 40.6586 85.9844C40.9364 85.7288 41.2536 85.5359 41.6115 85.4046C41.9763 85.2657 42.3627 85.1966 42.7717 85.1966C43.1802 85.1966 43.563 85.2657 43.9209 85.4046C44.2858 85.5359 44.603 85.7288 44.8732 85.9844C45.1503 86.2401 45.3694 86.5497 45.5297 86.9146C45.6901 87.2725 45.7708 87.6775 45.7708 88.1301C45.7708 88.5896 45.6901 89.0021 45.5297 89.3664C45.3763 89.7313 45.1614 90.0415 44.8842 90.2972C44.6141 90.5522 44.2968 90.7498 43.932 90.888C43.5671 91.0193 43.1802 91.085 42.7717 91.085Z" fill="black"></path></svg> 